<?xml version="1.0" encoding="UTF-8"?>
<svg width="1288px" height="288px" viewBox="0 0 1288 288" version="1.1" xmlns="http://www.w3.org/2000/svg" xmlns:xlink="http://www.w3.org/1999/xlink">
    <title>logo</title>
    <g id="logo" stroke="none" stroke-width="1" fill="none" fill-rule="evenodd">
        <path d="M144,288 C163.816514,288 182.477064,284.256881 199.981651,276.770642 C217.486239,269.284404 232.788991,258.990826 245.889908,245.889908 C258.990826,232.788991 269.284404,217.541284 276.770642,200.146789 C284.256881,182.752294 288,164.036697 288,144 C288,124.183486 284.256881,105.522936 276.770642,88.0183486 C269.284404,70.5137615 258.990826,55.2110092 245.889908,42.1100917 C232.788991,29.0091743 217.486239,18.7155963 199.981651,11.2293578 C182.477064,3.74311927 163.816514,0 144,0 C123.963303,0 105.247706,3.74311927 87.853211,11.2293578 C70.4587156,18.7155963 55.2110092,29.0091743 42.1100917,42.1100917 C29.0091743,55.2110092 18.7155963,70.5137615 11.2293578,88.0183486 C3.74311927,105.522936 0,124.183486 0,144 C0,164.036697 3.74311927,182.752294 11.2293578,200.146789 C18.7155963,217.541284 29.0091743,232.788991 42.1100917,245.889908 C55.2110092,258.990826 70.4587156,269.284404 87.853211,276.770642 C105.247706,284.256881 123.963303,288 144,288 Z M144.330749,272 C126.690784,272 110.098191,268.637382 94.5529716,261.912145 C79.0077519,255.186908 65.3919035,245.981051 53.7054264,234.294574 C42.0189492,222.608096 32.8130922,208.992248 26.0878553,193.447028 C19.3626184,177.901809 16,161.309216 16,143.669251 C16,126.029285 19.3626184,109.491817 26.0878553,94.0568475 C32.8130922,78.6218777 42.0189492,65.0611542 53.7054264,53.374677 C65.3919035,41.6881998 79.0077519,32.5374677 94.5529716,25.9224806 C110.098191,19.3074935 126.690784,16 144.330749,16 C161.970715,16 178.508183,19.3074935 193.943152,25.9224806 C209.378122,32.5374677 222.938846,41.6881998 234.625323,53.374677 C246.3118,65.0611542 255.462532,78.6218777 262.077519,94.0568475 C268.692506,109.491817 272,126.029285 272,143.669251 C272,161.309216 268.692506,177.901809 262.077519,193.447028 C255.462532,208.992248 246.3118,222.608096 234.625323,234.294574 C222.938846,245.981051 209.378122,255.186908 193.943152,261.912145 C178.508183,268.637382 161.970715,272 144.330749,272 Z M99.1433692,158.671348 C99.5830346,159.109551 100.0227,159.109551 100.462366,158.671348 C100.682198,158.671348 100.792115,158.561798 100.792115,158.342697 L100.792115,158.342697 L94.5268817,147.497191 C94.7467145,147.27809 94.8566308,146.949438 94.8566308,146.511236 C94.8566308,145.634831 94.7467145,144.977528 94.5268817,144.539326 C94.5268817,144.320225 93.7574671,143.991573 92.218638,143.553371 C91.7789725,143.553371 91.339307,143.44382 90.8996416,143.224719 L90.8996416,143.224719 L82.9856631,131.72191 L82.9856631,130.735955 L76.7204301,121.533708 L76.7204301,120.876404 C76.7204301,120.438202 76.7753883,120.054775 76.8853047,119.726124 C76.995221,119.397472 77.1600956,118.904494 77.3799283,118.247191 C77.3799283,117.151685 76.7204301,116.275281 75.4014337,115.617978 C74.7419355,115.179775 74.1923536,114.851124 73.7526882,114.632022 L73.7526882,114.632022 L71.7741935,111.016854 L82.9856631,105.429775 C82.7658303,106.744382 82.8757467,108.058989 83.3154122,109.373596 C83.3154122,109.811798 83.5352449,110.140449 83.9749104,110.359551 L83.9749104,110.359551 L85.953405,110.359551 C87.0525687,110.359551 87.3823178,110.140449 86.9426523,109.702247 C86.2831541,109.264045 85.953405,108.497191 85.953405,107.401685 C85.953405,106.963483 86.0633214,106.525281 86.2831541,106.087079 C86.9426523,107.182584 87.7120669,108.168539 88.5913978,109.044944 C89.9103943,110.797753 90.8996416,111.674157 91.5591398,111.674157 C91.7789725,111.674157 91.8888889,111.345506 91.8888889,110.688202 C91.6690562,110.469101 91.5591398,110.140449 91.5591398,109.702247 L91.5591398,109.702247 L85.953405,104.115169 L102.44086,96.2275281 L102.44086,97.5421348 L110.354839,96.2275281 L113.982079,99.1853933 C114.421744,99.8426966 114.971326,100.390449 115.630824,100.828652 C117.169654,101.705056 119.258065,102.033708 121.896057,101.814607 C123.654719,101.376404 124.863799,100.664326 125.523297,99.6783708 C126.182796,98.6924157 126.732378,97.761236 127.172043,96.8848315 C127.391876,95.7893258 127.611708,94.3651685 127.831541,92.6123596 L127.831541,92.6123596 L135.415771,94.5842697 L171.028674,115.617978 L189.494624,125.477528 C189.494624,125.696629 189.824373,126.134831 190.483871,126.792135 C191.583035,127.668539 193.561529,128.764045 196.419355,130.078652 C197.958184,130.735955 200.101553,131.61236 202.849462,132.707865 C205.597372,133.803371 208.510155,134.898876 211.587814,135.994382 C214.665472,137.089888 217.523297,138.021067 220.16129,138.787921 C222.799283,139.554775 224.667861,140.047753 225.767025,140.266854 C227.74552,140.705056 229.174432,140.595506 230.053763,139.938202 C230.933094,139.280899 231.592593,138.733146 232.032258,138.294944 C232.252091,138.294944 232.362007,137.856742 232.362007,136.980337 C232.362007,136.761236 232.252091,136.432584 232.032258,135.994382 C230.933094,134.460674 229.833931,133.036517 228.734767,131.72191 C226.976105,129.311798 224.997611,127.011236 222.799283,124.820225 C221.260454,123.067416 218.95221,121.150281 215.874552,119.06882 C212.796894,116.98736 211.038232,115.727528 210.598566,115.289326 C210.598566,115.289326 210.48865,115.344101 210.268817,115.453652 C210.048984,115.563202 209.719235,115.617978 209.27957,115.617978 L209.27957,115.617978 L208.290323,115.617978 L198.727599,109.044944 L167.071685,87.0252809 L157.83871,80.4522472 L159.487455,79.1376404 L159.487455,77.8230337 L170.369176,77.494382 C172.567503,78.5898876 174.76583,79.4662921 176.964158,80.1235955 C178.502987,81 180.096774,81.7668539 181.74552,82.4241573 C183.394265,83.0814607 184.438471,83.4101124 184.878136,83.4101124 C185.757467,83.8483146 186.416965,83.8483146 186.856631,83.4101124 L186.856631,83.4101124 L187.18638,83.0814607 C189.164875,83.738764 191.033453,84.505618 192.792115,85.3820225 C194.111111,85.8202247 195.430108,86.3679775 196.749104,87.0252809 C198.0681,87.6825843 198.837515,88.1207865 199.057348,88.3398876 C199.936679,88.7780899 200.376344,88.997191 200.376344,88.997191 L200.376344,88.997191 L201.035842,88.997191 L215.544803,95.241573 C215.544803,95.4606742 215.764636,95.7893258 216.204301,96.2275281 C216.424134,96.2275281 216.53405,96.2823034 216.53405,96.3918539 C216.53405,96.5014045 216.753883,96.5561798 217.193548,96.5561798 C217.413381,96.7752809 217.74313,96.8848315 218.182796,96.8848315 C218.402628,97.3230337 218.622461,97.761236 218.842294,98.1994382 C219.281959,99.5140449 219.611708,100.171348 219.831541,100.171348 C220.271207,100.171348 220.710872,100.116573 221.150538,100.007022 C221.590203,99.8974719 221.810036,99.6235955 221.810036,99.1853933 C221.150538,98.747191 220.600956,98.1994382 220.16129,97.5421348 C219.941458,97.1039326 219.831541,96.6657303 219.831541,96.2275281 C221.590203,96.8848315 223.129032,97.4325843 224.448029,97.8707865 C225.547192,98.3089888 226.591398,98.8019663 227.580645,99.3497191 C228.569892,99.8974719 229.284349,100.171348 229.724014,100.171348 C230.16368,100.171348 230.383513,100.061798 230.383513,99.8426966 L230.383513,99.8426966 L230.383513,99.1853933 L220.491039,95.241573 C220.710872,94.3651685 221.260454,93.7078652 222.139785,93.2696629 L222.139785,93.2696629 L222.799283,93.2696629 C223.238949,93.2696629 223.568698,93.0505618 223.78853,92.6123596 C224.008363,92.1741573 223.898447,91.9550562 223.458781,91.9550562 C222.57945,91.7359551 221.810036,91.7359551 221.150538,91.9550562 L221.150538,91.9550562 L219.831541,92.6123596 L218.842294,91.9550562 L218.842294,91.9550562 L216.863799,91.9550562 L216.863799,91.9550562 L216.204301,92.6123596 L202.02509,86.3679775 L202.02509,86.0393258 L188.175627,80.1235955 L188.175627,79.1376404 C187.955795,78.0421348 187.406213,77.2752809 186.526882,76.8370787 C185.867384,76.6179775 185.317802,76.6179775 184.878136,76.8370787 L184.878136,76.8370787 L184.218638,76.8370787 L181.910394,75.5224719 L184.878136,75.5224719 L184.218638,73.8792135 L173.336918,69.2780899 C169.599761,69.497191 166.30227,69.6067416 163.444444,69.6067416 L163.444444,69.6067416 L156.3344,69.6040254 C154.69928,69.5859179 153.88172,69.4772727 153.88172,69.2780899 C154.321386,69.2780899 154.541219,68.9494382 154.541219,68.2921348 L154.541219,68.2921348 L154.541219,66.9775281 L184.218638,53.1741573 C185.9773,53.1741573 187.076464,52.8455056 187.516129,52.1882022 C187.955795,51.9691011 188.175627,51.6404494 188.175627,51.2022472 C189.934289,51.6404494 191.583035,52.0786517 193.121864,52.5168539 C194.660693,52.9550562 195.979689,53.2837079 197.078853,53.502809 C198.178017,53.7219101 198.837515,53.9410112 199.057348,54.1601124 L199.057348,54.1601124 L202.684588,55.4747191 L218.182796,59.747191 C217.962963,59.747191 217.962963,59.8567416 218.182796,60.0758427 C218.182796,60.7331461 218.622461,61.0617978 219.501792,61.0617978 L219.501792,61.0617978 L221.150538,61.0617978 C221.37037,61.0617978 221.590203,60.9522472 221.810036,60.7331461 C221.810036,61.8286517 222.249701,62.7050562 223.129032,63.3623596 C223.568698,63.8005618 224.11828,64.238764 224.777778,64.6769663 C224.997611,64.6769663 225.217443,64.5674157 225.437276,64.3483146 C225.657109,63.9101124 225.767025,63.5814607 225.767025,63.3623596 C224.667861,62.7050562 224.11828,61.9382022 224.11828,61.0617978 C223.898447,60.6235955 223.898447,60.2949438 224.11828,60.0758427 C225.876941,60.7331461 227.525687,61.3904494 229.064516,62.0477528 C230.383513,62.2668539 231.592593,62.5407303 232.691756,62.869382 C233.79092,63.1980337 234.340502,63.3623596 234.340502,63.3623596 C234.780167,62.9241573 235,62.5955056 235,62.3764045 C233.681004,62.1573034 232.471924,61.8286517 231.37276,61.3904494 C230.273596,60.9522472 229.064516,60.6235955 227.74552,60.4044944 C226.426523,60.1853933 225.217443,59.9662921 224.11828,59.747191 C223.458781,58.4325843 223.568698,57.5561798 224.448029,57.1179775 C224.887694,56.8988764 225.32736,56.8988764 225.767025,57.1179775 L225.767025,57.1179775 L226.426523,56.1320225 C225.547192,55.6938202 224.72282,55.7485955 223.953405,56.2963483 C223.18399,56.8441011 222.689367,57.1179775 222.469534,57.1179775 C222.469534,56.6797753 222.249701,56.4606742 221.810036,56.4606742 L221.810036,56.4606742 L220.491039,56.4606742 C220.051374,56.241573 219.721625,56.241573 219.501792,56.4606742 L219.501792,56.4606742 L218.842294,57.1179775 L204.003584,53.1741573 L203.344086,52.5168539 L196.089606,50.5449438 C194.330944,50.3258427 192.792115,49.997191 191.473118,49.5589888 C190.154122,49.1207865 189.494624,48.7921348 189.494624,48.5730337 C189.494624,48.1348315 189.164875,47.5870787 188.505376,46.9297753 L188.505376,46.9297753 L187.845878,46.2724719 L169.709677,42 L168.390681,42 C168.170848,42 167.951016,42.1095506 167.731183,42.3286517 C167.51135,42.5477528 167.291517,42.7120787 167.071685,42.8216292 C166.851852,42.9311798 166.632019,43.0955056 166.412186,43.3146067 C166.412186,44.4101124 166.851852,45.3960674 167.731183,46.2724719 C167.951016,46.2724719 168.060932,46.3272472 168.060932,46.4367978 C168.060932,46.5463483 168.170848,46.6011236 168.390681,46.6011236 C168.390681,46.8202247 168.500597,46.9297753 168.72043,46.9297753 L168.72043,46.9297753 L171.688172,47.9157303 L145.637993,56.1320225 L144.648746,55.4747191 C143.769415,55.0365169 143.109916,54.8174157 142.670251,54.8174157 L142.670251,54.8174157 L141.681004,55.4747191 C141.021505,55.255618 140.471924,54.9269663 140.032258,54.488764 C139.592593,54.2696629 139.262843,54.1053371 139.043011,53.9957865 C138.823178,53.886236 138.603345,53.8314607 138.383513,53.8314607 C137.943847,53.3932584 137.55914,53.2837079 137.229391,53.502809 C136.899642,53.7219101 136.514934,53.8314607 136.075269,53.8314607 C136.075269,52.7359551 135.470729,52.0238764 134.261649,51.6952247 C133.052569,51.366573 132.228196,51.0926966 131.78853,50.8735955 C131.568698,50.6544944 131.458781,50.5449438 131.458781,50.5449438 L131.458781,50.5449438 L131.129032,50.5449438 L126.842294,48.5730337 L126.182796,47.9157303 L124.863799,47.5870787 C124.643967,47.3679775 124.259259,47.1488764 123.709677,46.9297753 C123.160096,46.7106742 122.555556,46.491573 121.896057,46.2724719 C121.016726,46.2724719 120.30227,46.7654494 119.752688,47.7514045 C119.203106,48.7373596 118.708483,49.7780899 118.268817,50.8735955 C117.829152,51.75 117.939068,52.5168539 118.598566,53.1741573 C119.258065,53.8314607 119.807646,54.3792135 120.247312,54.8174157 L120.247312,54.8174157 L121.896057,55.8033708 C122.335723,56.0224719 122.775388,56.1320225 123.215054,56.1320225 C124.314217,56.3511236 125.193548,56.6797753 125.853047,57.1179775 C127.831541,57.994382 128.930705,58.4325843 129.150538,58.4325843 L129.150538,58.4325843 L129.480287,58.4325843 L129.480287,59.747191 L126.182796,61.0617978 L120.90681,59.0898876 L120.247312,58.4325843 L118.928315,59.747191 L113.322581,60.7331461 L111.014337,61.0617978 L109.695341,61.0617978 L109.035842,60.7331461 C109.035842,60.5140449 108.925926,60.2949438 108.706093,60.0758427 C108.48626,59.8567416 108.321386,59.6924157 108.21147,59.5828652 C108.101553,59.4733146 107.936679,59.3089888 107.716846,59.0898876 C107.716846,59.0898876 107.497013,58.761236 107.057348,58.1039326 C106.617682,57.8848315 106.287933,57.7752809 106.0681,57.7752809 L106.0681,57.7752809 L104.749104,56.4606742 L99.8028674,54.1601124 C99.3632019,53.9410112 99.1433692,53.7219101 99.1433692,53.502809 L99.1433692,53.502809 L99.1433692,53.1741573 L95.516129,51.8595506 C95.2962963,52.0786517 95.0764636,52.1882022 94.8566308,52.1882022 C94.4169654,52.4073034 94.0322581,52.5168539 93.702509,52.5168539 C93.3727599,52.5168539 92.9880526,52.7359551 92.5483871,53.1741573 C91.0095579,54.9269663 90.5698925,56.4606742 91.2293907,57.7752809 C91.8888889,59.0898876 92.5483871,59.8567416 93.2078853,60.0758427 C93.6475508,60.5140449 94.307049,60.9522472 95.1863799,61.3904494 C95.4062127,61.6095506 95.7359618,61.7191011 96.1756272,61.7191011 L96.1756272,61.7191011 L100.132616,64.0196629 L100.792115,64.6769663 L99.8028674,66.3202247 L99.1433692,66.3202247 L97.8243728,65.3342697 L97.4946237,65.6629213 L96.8351254,65.6629213 L96.1756272,65.3342697 L95.516129,65.3342697 L95.516129,65.6629213 L93.8673835,66.9775281 L93.8673835,66.3202247 L93.2078853,66.3202247 L93.2078853,66.9775281 L91.5591398,67.6348315 L90.2401434,67.6348315 L90.2401434,68.2921348 L89.2508961,68.2921348 L89.9103943,68.6207865 L88.921147,69.2780899 L88.921147,70.5926966 L63.8602151,74.2078652 L57.5949821,68.2921348 C56.9354839,67.8539326 56.385902,67.4157303 55.9462366,66.9775281 C55.5065711,66.5393258 54.5173238,66.9775281 52.9784946,68.2921348 C51.6594982,68.9494382 51.2198327,70.0449438 51.6594982,71.5786517 C51.8793309,72.2359551 52.0991637,72.7837079 52.3189964,73.2219101 L52.3189964,73.2219101 L52.9784946,74.2078652 L53.9677419,75.5224719 L53.9677419,76.1797753 L52.9784946,76.1797753 L52.9784946,77.8230337 L51,78.4803371 L55.9462366,83.4101124 L57.5949821,83.4101124 L59.5734767,84.7247191 L62.2114695,84.7247191 C62.651135,84.9438202 63.5304659,85.0533708 64.8494624,85.0533708 C65.2891278,85.0533708 65.7287933,84.9438202 66.1684588,84.7247191 L66.1684588,84.7247191 L68.4767025,88.3398876 C69.3560335,89.6544944 70.3452808,90.6404494 71.4444444,91.2977528 C71.6642772,91.5168539 71.9940263,91.6264045 72.4336918,91.6264045 L72.4336918,91.6264045 L74.0824373,93.9269663 C72.1039427,95.4606742 70.125448,96.7752809 68.1469534,97.8707865 C66.3882915,98.9662921 64.7945042,100.007022 63.3655914,100.992978 C61.9366786,101.978933 61.0023895,102.691011 60.562724,103.129213 C59.9032258,103.567416 59.5734767,104.005618 59.5734767,104.44382 C59.5734767,104.662921 59.6833931,104.772472 59.9032258,104.772472 C59.6833931,104.772472 59.5734767,104.882022 59.5734767,105.101124 C59.353644,105.320225 59.1338112,105.484551 58.9139785,105.594101 C58.6941458,105.703652 58.474313,105.867978 58.2544803,106.087079 C60.0131422,108.27809 61.1123059,109.702247 61.5519713,110.359551 C61.9916368,111.235955 62.2114695,111.893258 62.2114695,112.331461 L62.2114695,112.331461 L62.5412186,112.988764 C62.7610514,113.646067 63.2007168,114.412921 63.8602151,115.289326 C64.739546,116.823034 66.1684588,118.466292 68.1469534,120.219101 C69.0262843,121.97191 70.2353644,122.848315 71.7741935,122.848315 C72.6535245,122.848315 73.3130227,122.738764 73.7526882,122.519663 C74.1923536,124.053371 74.8518519,125.258427 75.7311828,126.134831 C76.390681,127.011236 76.995221,127.997191 77.5448029,129.092697 C78.0943847,130.188202 78.5890084,130.845506 79.0286738,131.064607 C79.2485066,131.72191 79.5782557,132.269663 80.0179211,132.707865 C80.0179211,132.926966 80.1278375,133.036517 80.3476703,133.036517 L80.3476703,133.036517 L89.2508961,145.196629 L89.2508961,145.196629 L88.921147,145.853933 C88.4814815,146.511236 88.4814815,147.058989 88.921147,147.497191 C89.1409797,148.154494 89.6905615,148.702247 90.5698925,149.140449 C91.0095579,149.359551 91.4492234,149.469101 91.8888889,149.469101 L91.8888889,149.469101 L91.8888889,150.455056 C91.8888889,150.674157 92.1087216,151.331461 92.5483871,152.426966 C92.7682198,153.303371 93.3178017,153.960674 94.1971326,154.398876 C94.6367981,154.398876 94.9665472,154.508427 95.1863799,154.727528 L95.1863799,154.727528 L96.1756272,154.398876 C96.6152927,154.837079 97.0549582,155.494382 97.4946237,156.370787 C98.1541219,157.904494 98.7037037,158.671348 99.1433692,158.671348 Z M76.6666667,93 L73.3333333,90.3333333 L73.3333333,89.3333333 L69,84.3333333 L92,82 L76.6666667,93 Z M146.093023,177 L150,112.963134 L136,105 L146.093023,177 Z M140,181 L120.333333,112.285714 C115.666667,111.625 112.333333,110.083333 110.333333,107.660714 L110.333333,107.660714 L109.666667,107 L106,107.660714 L140,181 Z M126,179 L99.5652174,119 C98.2434783,120.767956 96.7014493,121.651934 94.9391304,121.651934 L94.9391304,121.651934 L92.9565217,121.651934 C92.2956522,121.651934 91.5797101,121.596685 90.8086957,121.486188 C90.0376812,121.375691 89.3217391,121.099448 88.6608696,120.657459 L88.6608696,120.657459 L88,120.657459 L126,179 Z M152,182 L177,130 L169.105263,126 L167.789474,125 L152,182 Z M166,179 L193,139.869565 C191.444444,139 190.222222,138.184783 189.333333,137.423913 C188.444444,136.663043 187.666667,135.956522 187,135.304348 L187,135.304348 L185,134 L166,179 Z M146.894398,247 L146.894398,223.041026 C143.150676,222.822222 139.627173,222.603419 136.323889,222.384615 C133.461043,221.947009 130.708307,221.564103 128.065679,221.235897 C125.423052,220.907692 123.551191,220.524786 122.450097,220.087179 C120.247907,219.868376 118.265937,219.649573 116.504185,219.430769 C114.742434,219.211966 114.081777,218.555556 114.522215,217.461538 C114.522215,217.023932 114.687379,216.203419 115.017708,215 C115.348036,213.796581 115.843529,212.593162 116.504185,211.389744 C117.164842,210.186325 117.770444,209.147009 118.320992,208.271795 C118.871539,207.396581 119.477141,206.849573 120.137798,206.630769 C120.578236,206.630769 121.844495,206.68547 123.936574,206.794872 C126.028654,206.904274 128.285898,207.068376 130.708307,207.287179 C133.130715,207.505983 135.663232,207.670085 138.30586,207.779487 C140.948487,207.888889 143.040567,207.94359 144.582099,207.94359 L150.801564,207.941026 C152.270837,207.92906 154.161623,207.875214 156.473921,207.779487 C159.116549,207.670085 161.759176,207.505983 164.401803,207.287179 C167.04443,207.068376 169.301674,206.904274 171.173535,206.794872 C173.045396,206.68547 174.201545,206.630769 174.641983,206.630769 C175.082421,206.849573 175.688023,207.396581 176.458789,208.271795 C177.229556,209.147009 177.890212,210.186325 178.44076,211.389744 C178.991307,212.593162 179.4868,213.796581 179.927238,215 C180.367675,216.203419 180.698004,217.023932 180.918223,217.461538 C180.918223,218.555556 180.092402,219.211966 178.44076,219.430769 C176.789118,219.649573 174.862202,219.868376 172.660013,220.087179 C171.558918,220.524786 169.687057,220.907692 167.04443,221.235897 C164.401803,221.564103 161.649066,221.947009 158.78622,222.384615 C155.482936,222.603419 151.959433,222.822222 148.215712,223.041026 L148.215712,223.041026 L148.215712,247 L155.482936,247 C167.15454,246.781197 176.623954,246.288889 183.891178,245.523077 C191.158403,244.757265 197.104314,243.77265 201.728912,242.569231 C206.353509,241.365812 210.097231,239.998291 212.960077,238.466667 C215.822923,236.935043 218.795879,235.294017 221.878944,233.54359 C224.74179,231.793162 226.943979,229.988034 228.485512,228.128205 C230.027044,226.268376 231.128139,224.517949 231.788796,222.876923 C232.449453,221.235897 232.834836,219.813675 232.944945,218.610256 C233.055055,217.406838 233,216.476923 232.779781,215.820513 C232.339343,214.726496 231.403413,213.304274 229.97199,211.553846 C228.540567,209.803419 227.054089,208.052991 225.512556,206.302564 C223.530586,204.333333 221.328397,202.254701 218.905988,200.066667 C217.804894,199.62906 216.924018,199.300855 216.263361,199.082051 C214.281391,198.425641 212.29942,197.550427 210.31745,196.45641 C210.537669,196.894017 210.647778,197.386325 210.647778,197.933333 C210.647778,198.480342 210.867997,198.97265 211.308435,199.410256 C211.308435,201.817094 210.978107,203.786325 210.31745,205.317949 C209.656793,205.974359 208.610753,206.740171 207.17933,207.615385 C205.747907,208.490598 204.261429,209.25641 202.719897,209.912821 C201.178364,210.350427 199.96716,210.350427 199.086285,209.912821 C198.645847,209.694017 198.315518,209.475214 198.095299,209.25641 C196.333548,207.724786 194.792015,206.302564 193.470702,204.989744 C192.369607,204.11453 191.378622,203.239316 190.497746,202.364103 C189.616871,201.488889 189.066323,200.94188 188.846104,200.723077 C188.846104,199.847863 189.066323,199.300855 189.506761,199.082051 C189.947199,198.644444 190.607856,197.823932 191.488731,196.620513 C192.369607,195.417094 192.810045,194.268376 192.810045,193.174359 C192.810045,191.861538 192.259498,190.986325 191.158403,190.548718 C189.176433,189.673504 187.74501,189.126496 186.864134,188.907692 L186.864134,188.907692 L184.882164,188.251282 C183.340631,187.594872 181.028332,186.938462 177.945267,186.282051 C174.862202,185.625641 171.613973,185.133333 168.20058,184.805128 C164.787186,184.476923 161.318738,184.148718 157.795235,183.820513 C154.271732,183.492308 151.518995,183.218803 149.537025,183 L149.537025,183 L145.242756,183 C143.260786,183.218803 140.563104,183.492308 137.14971,183.820513 C133.736317,184.148718 130.267869,184.476923 126.744366,184.805128 C123.220863,185.133333 119.862524,185.625641 116.66935,186.282051 C113.476175,186.938462 111.108822,187.594872 109.567289,188.251282 C109.567289,188.251282 108.025757,188.798291 104.942692,189.892308 L104.942692,189.892308 L99.6574372,191.533333 C98.3361236,191.97094 97.1249195,192.299145 96.0238249,192.517949 C95.1429491,192.955556 94.2070187,193.174359 93.2160335,193.174359 C92.2250483,193.174359 91.1790084,193.393162 90.0779137,193.830769 C89.197038,194.268376 87.9858339,194.870085 86.4443014,195.635897 C84.9027688,196.401709 83.3612363,197.112821 81.8197038,197.769231 C80.0579524,198.644444 78.2962009,199.410256 76.5344495,200.066667 C74.1120412,202.254701 71.9098519,204.333333 69.9278815,206.302564 C68.1661301,208.052991 66.4594334,209.803419 64.8077914,211.553846 C63.1561494,213.304274 62.2202189,214.726496 62,215.820513 L62,215.820513 L62,218.610256 C62,219.813675 62.3853831,221.235897 63.1561494,222.876923 C63.9269156,224.517949 65.0280103,226.268376 66.4594334,228.128205 C67.8908564,229.988034 70.037991,231.793162 72.9008371,233.54359 C75.7636832,235.294017 78.6265293,236.935043 81.4893754,238.466667 C84.3522215,239.998291 88.1509981,241.365812 92.8857051,242.569231 C97.6204121,243.77265 103.566323,244.757265 110.723439,245.523077 C117.880554,246.288889 127.405023,246.781197 139.296845,247 L139.296845,247 L146.894398,247 Z M148,205 C142.713043,205 137.756522,204.722222 133.130435,204.166667 C128.504348,203.611111 124.484058,202.944444 121.069565,202.166667 C117.655072,201.388889 114.956522,200.388889 112.973913,199.166667 C110.991304,197.944444 110,196.777778 110,195.666667 C110,194.333333 110.991304,193.111111 112.973913,192 C114.956522,190.888889 117.655072,190 121.069565,189.333333 C124.484058,188.666667 128.504348,188.111111 133.130435,187.666667 C137.756522,187.222222 142.713043,187 148,187 C153.286957,187 158.188406,187.222222 162.704348,187.666667 C167.22029,188.111111 171.24058,188.666667 174.765217,189.333333 C178.289855,190 181.043478,190.888889 183.026087,192 C185.008696,193.111111 186,194.333333 186,195.666667 C186,196.777778 185.008696,197.944444 183.026087,199.166667 C181.043478,200.388889 178.289855,201.388889 174.765217,202.166667 C171.24058,202.944444 167.22029,203.611111 162.704348,204.166667 C158.188406,204.722222 153.286957,205 148,205 Z M148.5,202 C156.01004,202 162.470884,201.351351 167.88253,200.054054 C173.294177,198.756757 176,197.351351 176,195.837838 C176,194.108108 173.294177,192.702703 167.88253,191.621622 C162.470884,190.540541 156.01004,190 148.5,190 C140.769076,190 134.253012,190.540541 128.951807,191.621622 C123.650602,192.702703 121,194.108108 121,195.837838 C121,197.351351 123.650602,198.756757 128.951807,200.054054 C134.253012,201.351351 140.769076,202 148.5,202 Z M199.682731,206.625917 C201.182062,207.290954 203.002677,207.069275 205.144578,205.96088 C206.643909,205.295844 207.607764,204.298289 208.036145,202.968215 C208.464525,201.638142 208.678715,200.640587 208.678715,199.97555 C209.107095,198.867156 209.107095,197.647922 208.678715,196.317848 C208.250335,194.987775 207.821954,194.101059 207.393574,193.657702 C206.965194,193.657702 205.519411,193.158924 203.056225,192.161369 C200.593039,191.163814 199.147256,190.665037 198.718876,190.665037 C197.862115,190.665037 197.219545,190.554197 196.791165,190.332518 C196.576975,190.332518 196.362784,190.221679 196.148594,190 C195.720214,190.443358 195.720214,191.219234 196.148594,192.327628 C196.576975,193.436023 196.576975,194.322738 196.148594,194.987775 C196.148594,196.761206 195.291834,197.98044 193.578313,198.645477 C192.935743,199.532192 192.828648,200.08639 193.257028,200.308068 C193.257028,200.529747 193.364123,200.640587 193.578313,200.640587 C194.649264,201.305623 195.613119,202.0815 196.46988,202.968215 L196.46988,202.968215 L198.39759,204.963325 C199.040161,205.628362 199.468541,206.182559 199.682731,206.625917 Z M98.1540001,214.510204 C97.2808631,215.163265 95.9711574,215.163265 94.2248832,214.510204 C92.478609,213.857143 90.7323348,212.986395 88.9860607,211.897959 C87.2397865,210.809524 86.1483651,209.503401 85.7117965,207.979592 C84.6203752,206.455782 84.7840884,204.768707 86.2029362,202.918367 C87.6217839,201.068027 89.3134871,199.598639 91.2780455,198.510204 C93.242604,197.204082 94.879736,196.115646 96.1894417,195.244898 C97.0625788,194.591837 97.7174316,194.156463 98.1540001,193.938776 C99.2454215,193.503401 100.227701,193.068027 101.100838,192.632653 C101.755691,192.197279 102.465115,191.816327 103.22911,191.489796 C103.993104,191.163265 104.593386,191 105.029955,191 C104.593386,191.653061 104.26596,192.197279 104.047676,192.632653 C103.611107,193.721088 103.392823,194.591837 103.392823,195.244898 C103.829391,195.680272 104.102247,196.714286 104.211389,198.346939 C104.320531,199.979592 105.79395,201.340136 108.631645,202.428571 C109.286498,203.081633 109.068214,203.734694 107.976792,204.387755 C107.758508,204.605442 107.212798,205.204082 106.33966,206.183673 C105.466523,207.163265 104.593386,208.197279 103.720249,209.285714 L103.720249,209.285714 L99.4637058,213.530612 C99.0271372,213.965986 98.5905687,214.292517 98.1540001,214.510204 Z M93.6146789,211.66 C94.7155963,212.113333 95.8165138,212.113333 96.9174312,211.66 L96.9174312,211.66 L98.2385321,210.98 L98.2385321,210.98 L100.880734,208.26 C101.761468,207.353333 102.477064,206.56 103.027523,205.88 C103.577982,205.2 103.853211,204.86 103.853211,204.86 C104.293578,203.953333 103.743119,202.933333 102.201835,201.8 C101.100917,200.44 100.550459,199.08 100.550459,197.72 C100.330275,196.813333 100.330275,196.02 100.550459,195.34 C100.550459,195.113333 100.330275,195 99.8899083,195 C99.6697248,195 99.559633,195.113333 99.559633,195.34 C97.7981651,196.246667 96.2568807,197.153333 94.9357798,198.06 C93.6146789,198.74 92.4036697,199.42 91.3027523,200.1 C90.2018349,200.78 89.6513761,201.346667 89.6513761,201.8 C88.5504587,202.253333 88,203.613333 88,205.88 C88.440367,207.013333 89.1559633,208.146667 90.146789,209.28 C91.1376147,210.413333 92.293578,211.206667 93.6146789,211.66 Z M133.78744,230 C131.378422,230 128.586151,229.78022 125.410628,229.340659 C122.235105,228.901099 118.89533,228.461538 115.391304,228.021978 C108.821256,227.362637 102.52496,226.098901 96.5024155,224.230769 C90.4798712,222.362637 85.4975845,220.659341 81.5555556,219.120879 C79.5845411,218.241758 78.1062802,217.142857 77.1207729,215.824176 C76.1352657,214.505495 75.4235105,213.296703 74.9855072,212.197802 C74.3285024,210.879121 74,209.450549 74,207.912088 L74,207.912088 L74,207.252747 C74,206.153846 74.2190016,205.274725 74.6570048,204.615385 C75.0950081,203.956044 75.5330113,203.186813 75.9710145,202.307692 L75.9710145,202.307692 L77.6135266,200 C75.8615137,202.857143 74.9855072,204.89011 74.9855072,206.098901 C74.9855072,207.307692 75.3140097,208.681319 75.9710145,210.21978 C76.8470209,213.076923 78.1062802,214.945055 79.7487923,215.824176 C81.3913043,216.703297 82.7600644,217.582418 83.8550725,218.461538 C85.1690821,219.120879 87.7971014,219.945055 91.7391304,220.934066 C95.6811594,221.923077 101.594203,223.296703 109.478261,225.054945 C118.019324,226.373626 124.863124,227.142857 130.009662,227.362637 C135.1562,227.582418 138.057971,227.692308 138.714976,227.692308 C138.933977,227.692308 139.207729,227.747253 139.536232,227.857143 C139.864734,227.967033 140.247987,228.021978 140.68599,228.021978 C141.123994,228.021978 141.561997,228.021978 142,228.021978 L141.384058,228.275824 C141.433333,229.007692 140.817391,229.472527 139.536232,229.67033 C138.112721,229.89011 136.196457,230 133.78744,230 Z M156.970149,231 C156.532338,231 156.20398,230.8875 155.985075,230.6625 C155.766169,230.6625 155.656716,230.55 155.656716,230.325 C155.218905,229.875 155,229.425 155,228.975 L155,228.975 L155,227.2875 C155.437811,227.2875 156.20398,227.175 157.298507,226.95 C158.174129,226.725 159.542289,226.55625 161.402985,226.44375 C163.263682,226.33125 165.835821,226.05 169.119403,225.6 C176.562189,224.475 183.293532,223.125 189.313433,221.55 C195.333333,219.975 200.20398,218.4 203.925373,216.825 C206.552239,215.25 209.124378,213.73125 211.641791,212.26875 C214.159204,210.80625 215.965174,209.7375 217.059701,209.0625 C218.154229,207.7125 219.029851,206.8125 219.686567,206.3625 C219.686567,205.9125 219.79602,205.51875 220.014925,205.18125 C220.233831,204.84375 220.562189,204.45 221,204 C221,204.9 220.562189,206.025 219.686567,207.375 C218.373134,209.85 216.293532,212.04375 213.447761,213.95625 C210.60199,215.86875 207.59204,217.5 204.41791,218.85 C201.243781,220.2 198.288557,221.26875 195.552239,222.05625 C192.81592,222.84375 190.791045,223.4625 189.477612,223.9125 C187.945274,224.3625 185.482587,224.98125 182.089552,225.76875 C178.696517,226.55625 175.248756,227.34375 171.746269,228.13125 C168.243781,228.91875 164.960199,229.59375 161.895522,230.15625 C158.830846,230.71875 157.189055,231 156.970149,231 Z M149.184353,219 C152.49574,219 155.475988,218.888889 158.125097,218.666667 C160.553447,218.444444 162.871418,218.277778 165.079009,218.166667 C167.2866,218.055556 168.831913,217.888889 169.71495,217.666667 C171.922541,217.666667 173.688613,217.555556 175.013168,217.333333 C176.337723,217.111111 177,216.777778 177,216.333333 C177,215.666667 176.337723,214.388889 175.013168,212.5 C173.688613,210.611111 172.584818,209.444444 171.701782,209 C171.260263,209 170.266847,209.055556 168.721534,209.166667 C167.17622,209.277778 165.299768,209.388889 163.092177,209.5 C160.884586,209.611111 158.621805,209.722222 156.303834,209.833333 C153.985864,209.944444 152.164601,210.111111 150.840046,210.333333 L150.840046,210.333333 L146.204105,210.333333 C144.658792,210.111111 142.782339,209.944444 140.574748,209.833333 C138.367157,209.722222 136.214756,209.611111 134.117545,209.5 C132.020333,209.388889 130.033501,209.277778 128.157049,209.166667 C126.280596,209.055556 125.231991,209 125.011232,209 C124.348954,209.444444 123.355538,210.611111 122.030984,212.5 C120.706429,214.388889 120.044152,215.666667 120.044152,216.333333 C119.823393,216.777778 120.43048,217.111111 121.865414,217.333333 C123.300349,217.555556 125.121611,217.666667 127.329202,217.666667 C127.991479,217.888889 129.481603,218.055556 131.799574,218.166667 C134.117545,218.277778 136.490705,218.444444 138.919055,218.666667 C141.788923,218.888889 144.879551,219 148.190937,219 L148.190937,219 L149.184353,219 Z" id="t" fill="#FFFFFF" fill-rule="nonzero"></path>
        <path d="M394.889925,216 L438.5,140.353591 L482.110075,216 L501,216 L449.927239,130.607735 L497.968284,48 L479.544776,48 L438.5,119.933702 L397.455224,48 L379.031716,48 L426.606343,130.607735 L376,216 L394.889925,216 Z M565,161 L565,148 L514,148 L514,161 L565,161 Z M643.771523,216 L681.267108,64.2430939 L681.732892,64.2430939 L719.228477,216 L742.983444,216 L787,48 L771.163355,48 L731.571744,199.756906 L731.10596,199.756906 L693.843267,48 L669.156733,48 L631.89404,199.756906 L631.428256,199.756906 L591.836645,48 L576,48 L620.016556,216 L643.771523,216 Z M820,67 L820,47 L805,47 L805,67 L820,67 Z M820,216 L820,97 L805,97 L805,216 L820,216 Z M863.879552,215 L863.879552,140.405405 C863.879552,115.3861 876.434174,108.436293 894.568627,108.436293 C914.098039,108.436293 917.120448,121.409266 917.120448,135.07722 L917.120448,215 L932,215 L932,131.602317 C932,108.667954 924.560224,95 897.12605,95 C879.921569,95 871.784314,99.4015444 864.344538,112.142857 L863.879552,112.142857 L863.879552,96.8532819 L849,96.8532819 L849,215 L863.879552,215 Z M996.904,259 C1033.096,259 1044,249.243626 1044,214.167139 L1044,96.8583569 L1029.152,96.8583569 L1029.152,112.886686 L1028.688,112.886686 C1022.192,98.7167139 1012.912,95 997.832,95 C959.9348,95 957.054613,119.816243 957,152.093296 L957,153.073654 C957,185.827195 959.552,211.147309 997.832,211.147309 C1012.216,211.147309 1022.656,207.1983 1028.688,193.957507 L1029.152,193.957507 L1029.152,211.379603 C1029.152,239.022663 1024.28,244.133144 1000.152,244.133144 C981.128,244.133144 975.096,239.951841 975.096,226.014164 L960.248,226.014164 C959.784,250.869688 973.936,259 996.904,259 Z M999.024896,196 C975.330622,196 973.04401,184.444305 973.000647,153.930472 L973,153 C973,121.790323 975.091286,110 999.024896,110 C1023.19087,110 1029,119.478495 1029,153 C1029,186.521505 1023.19087,196 999.024896,196 Z M1139.92754,216 L1150.82609,180.497238 L1223.17391,180.497238 L1234.07246,216 L1251,216 L1198.36232,48 L1175.63768,48 L1123,216 L1139.92754,216 Z M1218,164 L1156,164 L1185.84328,64 L1188.15672,64 L1218,164 Z M1288,216 L1288,48 L1272,48 L1272,216 L1288,216 Z" id="X-WingAI" fill="#FFFFFF" fill-rule="nonzero"></path>
    </g>
</svg>