<?xml version="1.0" standalone="no"?>
<!DOCTYPE svg PUBLIC "-//W3C//DTD SVG 20010904//EN"
 "http://www.w3.org/TR/2001/REC-SVG-20010904/DTD/svg10.dtd">
<svg version="1.0" xmlns="http://www.w3.org/2000/svg"
 width="576.000000pt" height="576.000000pt" viewBox="0 0 576.000000 576.000000"
 preserveAspectRatio="xMidYMid meet">
<metadata>
Created by potrace 1.11, written by Peter Selinger 2001-2013
</metadata>
<g transform="translate(0.000000,576.000000) scale(0.100000,-0.100000)"
fill="#000000" stroke="none">
<path d="M2678 5755 c-2 -1 -40 -5 -85 -9 -45 -3 -88 -8 -95 -11 -7 -2 -37 -7
-66 -9 -29 -3 -63 -8 -75 -11 -12 -3 -33 -7 -47 -9 -14 -2 -43 -9 -65 -14 -22
-6 -51 -13 -65 -16 -130 -24 -362 -111 -565 -211 -311 -153 -527 -306 -765
-545 -122 -122 -177 -182 -224 -246 -17 -21 -33 -41 -36 -44 -14 -12 -122
-174 -180 -270 -81 -133 -186 -353 -238 -496 -60 -163 -119 -394 -138 -539 -3
-22 -7 -51 -10 -65 -29 -166 -25 -601 6 -805 5 -33 12 -78 16 -100 11 -77 53
-243 90 -356 197 -612 612 -1161 1143 -1513 148 -97 179 -115 329 -190 262
-131 562 -226 827 -261 22 -3 49 -8 60 -10 61 -12 203 -20 385 -20 219 0 311
7 455 31 50 8 104 17 120 20 142 23 414 111 590 190 340 153 612 340 870 599
300 299 523 645 668 1036 36 95 84 251 93 299 3 14 10 43 16 65 5 22 12 51 14
65 2 14 6 35 9 47 3 12 8 46 11 75 2 29 7 58 9 65 19 56 27 492 12 648 -13
146 -17 169 -42 305 -81 423 -292 874 -577 1232 -74 93 -276 304 -358 374
-131 112 -321 247 -445 317 -92 52 -329 165 -422 201 -184 71 -462 141 -643
161 -36 4 -74 9 -85 12 -22 5 -491 13 -497 8z m492 -328 c14 -3 46 -8 71 -11
450 -62 896 -256 1255 -546 101 -82 292 -273 374 -374 152 -188 302 -443 388
-661 86 -219 124 -364 163 -625 14 -95 19 -461 8 -560 -4 -41 -11 -100 -14
-130 -43 -373 -237 -842 -488 -1175 -385 -511 -974 -876 -1588 -984 -178 -32
-191 -33 -424 -35 -256 -3 -396 12 -645 68 -284 65 -647 238 -903 429 -339
254 -597 563 -776 927 -23 47 -47 93 -52 103 -16 30 -70 168 -95 247 -53 161
-92 349 -113 545 -9 81 -7 479 2 525 3 14 8 48 12 75 42 342 191 727 405 1047
254 380 573 665 972 869 287 146 595 237 898 265 41 3 77 8 78 9 6 5 445 -3
472 -8z"/>
<path d="M3348 4910 c-10 -6 -18 -19 -18 -30 0 -21 54 -70 78 -70 26 0 1 -16
-53 -33 -27 -9 -137 -43 -244 -77 -167 -53 -198 -60 -217 -49 -13 6 -32 9 -44
6 -12 -3 -36 3 -56 15 -19 11 -43 18 -54 15 -13 -3 -21 1 -25 14 -4 10 -18 22
-33 26 -15 3 -72 28 -127 55 -57 28 -111 48 -124 46 -18 -2 -31 -16 -47 -48
-13 -25 -24 -50 -24 -55 -1 -30 49 -66 136 -100 52 -20 94 -42 94 -49 0 -6
-16 -18 -35 -25 -30 -11 -41 -9 -93 12 -51 20 -61 22 -79 10 -11 -7 -58 -18
-104 -24 l-84 -11 -50 47 c-27 25 -72 58 -100 71 -27 14 -66 34 -85 45 -79 45
-163 -22 -129 -102 12 -30 35 -47 127 -94 28 -15 52 -33 52 -40 0 -19 -27 -38
-35 -25 -8 12 -49 13 -73 1 -28 -14 -65 -29 -90 -36 -12 -4 -20 -11 -17 -16 4
-5 1 -9 -4 -9 -6 0 -11 -7 -11 -15 0 -8 -3 -15 -7 -16 -5 0 -15 -2 -23 -4 -23
-4 -90 -15 -135 -21 -22 -3 -51 -7 -65 -9 -14 -2 -49 -7 -79 -10 -30 -4 -57
-8 -61 -10 -3 -2 -35 -6 -70 -10 l-66 -7 -74 71 c-41 39 -83 70 -92 71 -25 0
-78 -49 -78 -73 0 -11 11 -40 25 -64 14 -23 21 -43 15 -43 -5 0 -10 -9 -10
-19 0 -11 -9 -22 -20 -26 -17 -5 -14 -11 29 -53 61 -59 112 -77 222 -81 32 -1
40 -7 73 -56 20 -31 48 -61 61 -67 14 -6 32 -22 40 -34 15 -23 13 -25 -75 -84
-49 -33 -92 -60 -96 -60 -13 0 -104 -83 -104 -95 0 -7 -6 -15 -12 -18 -9 -3
-6 -13 9 -33 13 -16 38 -60 58 -99 63 -129 168 -229 218 -209 10 4 17 1 17 -6
0 -18 101 -168 204 -305 74 -98 91 -127 91 -155 0 -28 6 -39 32 -55 19 -12 33
-32 37 -49 8 -39 34 -66 62 -66 17 0 29 -11 43 -39 17 -32 38 -51 57 -51 13 0
-2 35 -55 126 -40 67 -58 108 -54 122 6 24 -28 62 -56 62 -19 0 -157 187 -184
252 -8 18 -40 68 -70 111 -50 72 -54 81 -47 114 11 45 5 58 -34 83 -29 18 -77
85 -66 92 3 2 53 27 113 55 l107 53 0 -33 c0 -41 19 -69 45 -65 26 4 28 8 20
41 -8 29 1 49 13 30 40 -63 102 -114 102 -84 0 12 -38 58 -83 100 l-39 37 84
40 c239 117 240 117 247 105 6 -10 24 -9 83 2 l75 14 56 -49 c31 -27 69 -53
84 -57 42 -12 109 -6 137 13 28 18 66 84 66 115 0 46 6 49 78 31 82 -20 42 1
466 -250 304 -179 450 -260 633 -355 23 -12 56 -35 75 -51 73 -64 353 -178
638 -259 114 -33 144 -32 181 4 16 16 29 34 29 39 0 13 -110 154 -178 228 -74
80 -246 204 -283 204 -18 0 -113 60 -305 193 -501 347 -712 495 -719 507 -3 5
1 12 8 17 8 4 16 14 19 22 3 11 30 15 107 18 97 4 106 2 179 -28 42 -18 113
-47 156 -65 54 -22 85 -30 96 -24 16 9 124 -30 235 -85 28 -13 114 -51 191
-84 167 -71 209 -96 223 -133 6 -18 17 -28 30 -28 25 0 27 15 6 36 -17 17 -20
34 -6 34 5 0 47 -16 92 -35 84 -35 109 -42 109 -27 0 4 -45 25 -100 47 -55 22
-100 44 -100 48 0 4 16 17 36 29 32 19 34 23 18 29 -10 3 -28 3 -39 0 -68 -22
-175 10 -394 118 -42 21 -118 56 -169 77 -71 29 -94 44 -98 61 -8 30 -26 43
-65 48 -43 6 -63 25 -26 25 52 0 14 30 -94 77 l-104 44 -196 -1 -196 -1 5 26
c4 21 18 33 66 55 33 15 102 47 151 70 103 49 212 99 304 142 35 16 78 32 95
35 17 3 39 13 49 21 22 19 52 13 327 -73 47 -14 92 -28 100 -30 89 -21 177
-50 183 -61 4 -8 24 -14 42 -14 22 0 35 -5 35 -13 0 -16 42 -57 58 -57 16 0
15 21 -3 44 -23 30 -20 49 5 36 11 -6 20 -8 20 -4 0 3 6 2 13 -4 27 -22 184
-56 163 -35 -10 10 -114 41 -164 49 -67 10 -76 45 -17 69 18 7 19 8 2 12 -10
3 -26 2 -35 -2 -33 -14 -128 -10 -197 8 -38 10 -86 22 -105 26 -19 5 -55 16
-80 25 -25 10 -88 29 -140 42 -52 13 -111 29 -131 34 -23 6 -40 19 -47 34 -12
27 -12 27 -213 75 -160 38 -200 44 -221 31z m-1540 -811 c-14 -11 -81 -61
-149 -109 -138 -99 -138 -99 -189 -28 -14 20 -39 53 -57 75 l-32 39 42 2 c23
2 78 7 122 12 44 5 116 12 160 16 44 4 82 8 84 10 2 2 14 4 25 4 19 0 18 -2
-6 -21z"/>
<path d="M2724 3634 c3 -16 8 -49 11 -74 3 -25 7 -54 9 -65 2 -11 7 -47 11
-80 4 -32 8 -66 10 -75 1 -8 8 -58 15 -110 7 -52 14 -102 15 -112 2 -9 6 -38
10 -65 4 -26 8 -59 10 -73 2 -14 7 -47 10 -75 8 -56 12 -87 19 -130 7 -45 14
-91 26 -185 6 -47 13 -95 15 -107 2 -12 9 -65 16 -117 7 -53 16 -96 19 -96 4
0 8 33 9 73 2 39 4 88 6 107 1 19 6 87 10 150 3 63 8 135 10 160 2 25 7 99 10
165 4 66 8 140 10 165 10 157 18 313 19 358 l1 54 -95 55 c-52 30 -115 66
-139 80 l-43 25 6 -28z"/>
<path d="M2148 3613 c-32 -5 -33 2 40 -153 27 -58 74 -159 105 -225 102 -222
115 -250 157 -340 23 -49 53 -115 67 -145 14 -30 61 -131 105 -225 43 -93 98
-211 121 -262 23 -50 43 -91 44 -89 2 1 -24 95 -56 208 -33 113 -66 230 -74
259 -8 30 -47 167 -87 304 -40 138 -76 264 -80 280 -22 81 -80 276 -85 285 -3
6 -14 10 -24 10 -37 0 -110 32 -149 66 -22 18 -44 33 -49 33 -4 -1 -20 -4 -35
-6z"/>
<path d="M1959 3350 c-31 -23 -132 -30 -167 -11 -13 7 -22 8 -22 2 0 -10 179
-287 630 -975 52 -80 96 -144 97 -142 2 2 -19 53 -46 114 -27 61 -56 125 -64
144 -8 18 -25 56 -37 83 -13 28 -30 68 -40 90 -9 22 -26 60 -37 85 -12 25 -51
115 -88 200 -37 85 -79 182 -94 215 -15 33 -42 95 -61 138 -18 42 -36 77 -39
77 -3 0 -18 -9 -32 -20z"/>
<path d="M3206 2716 c-82 -298 -153 -549 -158 -558 -5 -10 -6 -18 -3 -18 3 0
28 46 54 103 46 97 92 192 261 542 100 207 171 359 173 368 1 4 -39 29 -88 55
l-90 48 -149 -540z"/>
<path d="M3687 3048 c-69 -164 -181 -429 -192 -453 -55 -122 -155 -369 -151
-372 2 -2 21 22 42 54 21 32 42 63 47 68 5 6 64 91 132 190 69 99 129 187 135
195 5 8 44 64 85 124 l75 109 -31 19 c-17 10 -40 28 -52 39 -12 11 -34 30 -49
40 l-27 20 -14 -33z"/>
<path d="M2849 2096 c-4 -4 -96 -13 -209 -22 -195 -15 -348 -43 -480 -90 -123
-43 -255 -81 -303 -88 -37 -6 -77 -23 -262 -112 -81 -39 -102 -55 -211 -166
-67 -68 -126 -133 -133 -145 -21 -42 -13 -115 21 -184 45 -91 130 -170 268
-249 182 -103 342 -150 635 -185 178 -21 223 -23 511 -31 l252 -7 0 242 0 241
-31 1 c-91 2 -337 29 -407 44 -14 3 -52 10 -85 15 -33 6 -75 13 -94 16 l-33 5
7 47 c8 51 51 145 83 178 23 24 23 24 232 8 148 -11 532 -11 680 0 222 16 207
18 241 -23 32 -40 90 -177 82 -198 -6 -15 -23 -21 -93 -28 -30 -3 -89 -12
-130 -20 -41 -8 -93 -17 -115 -19 -22 -3 -62 -8 -90 -11 -49 -6 -131 -12 -190
-14 l-30 -1 0 -237 0 -238 185 0 c176 1 411 10 475 19 17 3 59 8 95 11 36 4
74 9 85 11 11 1 40 6 65 9 131 17 340 84 424 134 17 10 58 33 91 51 170 92
258 199 272 331 5 46 2 52 -43 116 -27 37 -89 109 -139 158 -81 80 -100 94
-178 126 -89 37 -102 35 -77 -11 15 -29 -6 -121 -33 -143 -28 -23 -114 -68
-148 -77 -14 -4 -37 -3 -52 4 -30 13 -207 173 -207 188 0 6 15 31 34 57 50 67
53 120 9 141 -132 61 -317 101 -578 125 -38 4 -90 9 -115 12 -62 7 -276 14
-281 9z m417 -88 c5 -3 38 -9 74 -12 132 -14 195 -27 275 -57 59 -22 105 -62
105 -91 0 -58 -148 -125 -335 -152 -22 -4 -53 -9 -70 -12 -154 -27 -522 -27
-715 0 -121 17 -255 51 -312 80 -139 69 -109 143 81 195 40 11 98 23 129 27
32 3 59 8 62 9 3 2 46 6 95 10 50 4 92 9 94 11 6 6 506 -2 517 -8z m-1181 -99
c-12 -23 -14 -42 -9 -72 13 -72 19 -83 62 -109 21 -12 39 -23 41 -24 5 -5
-102 -127 -162 -187 -59 -57 -84 -65 -141 -43 -78 30 -135 73 -157 120 -26 53
-21 78 23 126 58 62 306 217 351 220 4 0 0 -14 -8 -31z m-574 -227 c-6 -12
-11 -31 -11 -45 0 -33 29 -117 52 -150 23 -32 115 -93 172 -114 34 -12 247
-65 396 -99 19 -4 37 -8 40 -9 3 -1 23 -4 45 -9 40 -7 63 -10 160 -22 28 -3
61 -7 75 -9 21 -3 158 -12 315 -20 69 -4 75 -5 75 -14 0 -28 -161 -38 -305
-20 -38 5 -90 12 -115 15 -25 3 -56 7 -70 9 -14 2 -63 9 -110 15 -47 6 -101
15 -120 20 -19 5 -50 12 -67 15 -53 9 -374 115 -423 140 -53 27 -80 55 -109
110 -31 61 -37 127 -16 175 10 22 20 38 22 36 3 -2 0 -13 -6 -24z m2885 -64
c-35 -60 -80 -104 -156 -154 -65 -42 -245 -124 -272 -124 -8 0 -18 -3 -22 -7
-3 -4 -12 -8 -19 -9 -7 -1 -33 -8 -58 -17 -47 -16 -127 -38 -244 -66 -22 -5
-51 -12 -65 -14 -14 -3 -43 -9 -65 -15 -34 -9 -79 -19 -267 -57 -9 -2 -37 -7
-62 -10 -42 -7 -46 -5 -57 18 -24 52 -19 54 176 73 107 10 341 53 477 88 212
54 299 88 441 172 126 75 159 101 194 152 27 39 26 16 -1 -30z"/>
<path d="M2765 1953 c-116 -13 -197 -26 -242 -39 -55 -16 -103 -47 -103 -68 0
-39 103 -81 265 -108 87 -14 419 -17 524 -5 154 17 293 64 308 102 14 38 -80
83 -207 100 -30 4 -64 9 -75 12 -24 6 -428 11 -470 6z"/>
<path d="M1968 1842 c-14 -9 -55 -33 -90 -54 -119 -68 -143 -121 -88 -194 29
-41 81 -74 115 -74 31 0 73 29 124 87 28 31 51 62 51 69 0 6 -12 24 -26 39
-31 34 -44 66 -44 111 0 38 -4 40 -42 16z"/>
<path d="M3924 1915 c8 -51 -12 -108 -43 -125 -29 -15 -27 -25 16 -62 20 -18
53 -50 72 -70 23 -25 44 -38 61 -38 41 1 108 36 123 67 21 41 29 122 14 161
-11 30 -21 37 -99 67 -49 18 -88 31 -88 29 0 -1 -14 1 -31 6 l-31 9 6 -44z"/>
<path d="M2468 1548 c-36 -44 -74 -115 -65 -124 7 -7 105 -18 282 -31 191 -15
488 -10 733 13 138 12 139 13 93 86 -53 84 -65 90 -156 84 -314 -22 -400 -24
-565 -13 -58 4 -148 9 -200 12 l-95 6 -27 -33z"/>
</g>
</svg>
